# MagicaVoxel @ Ephtracy

# group
o 

# material
mtllib piraterighthand.mtl
usemtl palette

# normals
vn -1 0 0
vn 1 0 0
vn 0 0 1
vn 0 0 -1
vn 0 -1 0
vn 0 1 0

# texcoords
vt 0.0605469 0.5
vt 0.994141 0.5

# verts
v -0.6 0.4 0.1
v -0.6 0.4 -0.1
v -0.6 0.6 0.1
v -0.6 0.6 -0.1
v -0.6 0.7 0.1
v -0.6 0.7 -0.1
v -0.5 0.7 0.1
v -0.5 0.7 -0.1
v -0.5 0.8 0.1
v -0.5 0.8 -0.1
v -0.4 0.8 0.1
v -0.4 0.8 -0.1
v -0.4 0.9 0.1
v -0.4 0.9 -0.1
v -0.4 0.4 0.1
v -0.4 0.4 -0.1
v -0.4 0.6 0.1
v -0.4 0.6 -0.1
v -0.3 0.6 0.1
v -0.3 0.6 -0.1
v -0.3 0.9 0.1
v -0.3 0.9 -0.1
v -0.6 0.4 0.1
v -0.6 0.6 0.1
v -0.6 0.7 0.1
v -0.5 0.7 0.1
v -0.5 0.8 0.1
v -0.4 0.4 0.1
v -0.4 0.6 0.1
v -0.4 0.8 0.1
v -0.4 0.9 0.1
v -0.3 0.6 0.1
v -0.3 0.9 0.1
v -0.6 0.4 -0.1
v -0.6 0.6 -0.1
v -0.6 0.7 -0.1
v -0.5 0.7 -0.1
v -0.5 0.8 -0.1
v -0.4 0.4 -0.1
v -0.4 0.6 -0.1
v -0.4 0.8 -0.1
v -0.4 0.9 -0.1
v -0.3 0.6 -0.1
v -0.3 0.9 -0.1
v -0.6 0.4 0.1
v -0.4 0.4 0.1
v -0.6 0.4 -0.1
v -0.4 0.4 -0.1
v -0.4 0.6 0.1
v -0.3 0.6 0.1
v -0.4 0.6 -0.1
v -0.3 0.6 -0.1
v -0.6 0.7 0.1
v -0.5 0.7 0.1
v -0.6 0.7 -0.1
v -0.5 0.7 -0.1
v -0.5 0.8 0.1
v -0.4 0.8 0.1
v -0.5 0.8 -0.1
v -0.4 0.8 -0.1
v -0.4 0.9 0.1
v -0.3 0.9 0.1
v -0.4 0.9 -0.1
v -0.3 0.9 -0.1

# faces
f 3/2/1 2/2/1 1/2/1
f 4/2/1 2/2/1 3/2/1
f 5/1/1 4/1/1 3/1/1
f 6/1/1 4/1/1 5/1/1
f 9/1/1 8/1/1 7/1/1
f 10/1/1 8/1/1 9/1/1
f 13/1/1 12/1/1 11/1/1
f 14/1/1 12/1/1 13/1/1
f 15/2/2 16/2/2 17/2/2
f 17/2/2 16/2/2 18/2/2
f 19/1/2 20/1/2 21/1/2
f 21/1/2 20/1/2 22/1/2
f 26/1/3 25/1/3 24/1/3
f 28/2/3 24/2/3 23/2/3
f 29/1/3 27/1/3 26/1/3
f 29/2/3 24/2/3 28/2/3
f 29/1/3 26/1/3 24/1/3
f 30/1/3 27/1/3 29/1/3
f 32/1/3 31/1/3 30/1/3
f 32/1/3 30/1/3 29/1/3
f 33/1/3 31/1/3 32/1/3
f 35/1/4 36/1/4 37/1/4
f 34/2/4 35/2/4 39/2/4
f 37/1/4 38/1/4 40/1/4
f 39/2/4 35/2/4 40/2/4
f 35/1/4 37/1/4 40/1/4
f 40/1/4 38/1/4 41/1/4
f 41/1/4 42/1/4 43/1/4
f 40/1/4 41/1/4 43/1/4
f 43/1/4 42/1/4 44/1/4
f 47/2/5 46/2/5 45/2/5
f 48/2/5 46/2/5 47/2/5
f 51/1/5 50/1/5 49/1/5
f 52/1/5 50/1/5 51/1/5
f 53/1/6 54/1/6 55/1/6
f 55/1/6 54/1/6 56/1/6
f 57/1/6 58/1/6 59/1/6
f 59/1/6 58/1/6 60/1/6
f 61/1/6 62/1/6 63/1/6
f 63/1/6 62/1/6 64/1/6
