# MagicaVoxel @ Ephtracy

# group
o 

# material
mtllib zone.mtl
usemtl palette

# normals
vn -1 0 0
vn 1 0 0
vn 0 0 1
vn 0 0 -1
vn 0 -1 0
vn 0 1 0

# texcoords
vt 0.404297 0.5
vt 0.470703 0.5
vt 0.716797 0.5

# verts
v -1.6 -1.2 1.6
v -1.6 -1.2 -1.6
v -1.6 -1.1 1.6
v -1.6 -1.1 -1.6
v -1.2 -1.1 1.2
v -1.2 -1.1 -1.2
v -1.2 -1 1.2
v -1.2 -1 -1.2
v -1.1 -1 1.1
v -1.1 -1 0.8
v -1.1 -1 -0.8
v -1.1 -1 -1.1
v -1.1 -0.9 1.1
v -1.1 -0.9 0.8
v -1.1 -0.9 -0.8
v -1.1 -0.9 -1.1
v 0.8 -1 1.1
v 0.8 -1 0.8
v 0.8 -1 -0.8
v 0.8 -1 -1.1
v 0.8 -0.9 1.1
v 0.8 -0.9 0.8
v 0.8 -0.9 -0.8
v 0.8 -0.9 -1.1
v -0.8 -1 1.1
v -0.8 -1 0.8
v -0.8 -1 -0.8
v -0.8 -1 -1.1
v -0.8 -0.9 1.1
v -0.8 -0.9 0.8
v -0.8 -0.9 -0.8
v -0.8 -0.9 -1.1
v 1.1 -1 1.1
v 1.1 -1 0.8
v 1.1 -1 -0.8
v 1.1 -1 -1.1
v 1.1 -0.9 1.1
v 1.1 -0.9 0.8
v 1.1 -0.9 -0.8
v 1.1 -0.9 -1.1
v 1.2 -1.1 1.2
v 1.2 -1.1 -1.2
v 1.2 -1 1.2
v 1.2 -1 -1.2
v 1.6 -1.2 1.6
v 1.6 -1.2 -1.6
v 1.6 -1.1 1.6
v 1.6 -1.1 -1.6
v -1.6 -1.2 1.6
v -1.6 -1.1 1.6
v 1.6 -1.2 1.6
v 1.6 -1.1 1.6
v -1.2 -1.1 1.2
v -1.2 -1 1.2
v 1.2 -1.1 1.2
v 1.2 -1 1.2
v -1.1 -1 1.1
v -1.1 -0.9 1.1
v -0.8 -1 1.1
v -0.8 -0.9 1.1
v 0.8 -1 1.1
v 0.8 -0.9 1.1
v 1.1 -1 1.1
v 1.1 -0.9 1.1
v -1.1 -1 -0.8
v -1.1 -0.9 -0.8
v -0.8 -1 -0.8
v -0.8 -0.9 -0.8
v 0.8 -1 -0.8
v 0.8 -0.9 -0.8
v 1.1 -1 -0.8
v 1.1 -0.9 -0.8
v -1.1 -1 0.8
v -1.1 -0.9 0.8
v -0.8 -1 0.8
v -0.8 -0.9 0.8
v 0.8 -1 0.8
v 0.8 -0.9 0.8
v 1.1 -1 0.8
v 1.1 -0.9 0.8
v -1.1 -1 -1.1
v -1.1 -0.9 -1.1
v -0.8 -1 -1.1
v -0.8 -0.9 -1.1
v 0.8 -1 -1.1
v 0.8 -0.9 -1.1
v 1.1 -1 -1.1
v 1.1 -0.9 -1.1
v -1.2 -1.1 -1.2
v -1.2 -1 -1.2
v 1.2 -1.1 -1.2
v 1.2 -1 -1.2
v -1.6 -1.2 -1.6
v -1.6 -1.1 -1.6
v 1.6 -1.2 -1.6
v 1.6 -1.1 -1.6
v -1.6 -1.2 1.6
v 1.6 -1.2 1.6
v -1.2 -1.2 1.2
v 1.2 -1.2 1.2
v -1.2 -1.2 -1.2
v 1.2 -1.2 -1.2
v -1.6 -1.2 -1.6
v 1.6 -1.2 -1.6
v -1.6 -1.1 1.6
v 1.6 -1.1 1.6
v -1.2 -1.1 1.2
v 1.2 -1.1 1.2
v -1.2 -1.1 -1.2
v 1.2 -1.1 -1.2
v -1.6 -1.1 -1.6
v 1.6 -1.1 -1.6
v -1.2 -1 1.2
v 1.2 -1 1.2
v -1.1 -1 1.1
v -0.8 -1 1.1
v 0.8 -1 1.1
v 1.1 -1 1.1
v -1.1 -1 0.8
v -0.8 -1 0.8
v 0.8 -1 0.8
v 1.1 -1 0.8
v -1.1 -1 -0.8
v -0.8 -1 -0.8
v 0.8 -1 -0.8
v 1.1 -1 -0.8
v -1.1 -1 -1.1
v -0.8 -1 -1.1
v 0.8 -1 -1.1
v 1.1 -1 -1.1
v -1.2 -1 -1.2
v 1.2 -1 -1.2
v -1.1 -0.9 1.1
v -0.8 -0.9 1.1
v 0.8 -0.9 1.1
v 1.1 -0.9 1.1
v -1.1 -0.9 0.8
v -0.8 -0.9 0.8
v 0.8 -0.9 0.8
v 1.1 -0.9 0.8
v -1.1 -0.9 -0.8
v -0.8 -0.9 -0.8
v 0.8 -0.9 -0.8
v 1.1 -0.9 -0.8
v -1.1 -0.9 -1.1
v -0.8 -0.9 -1.1
v 0.8 -0.9 -1.1
v 1.1 -0.9 -1.1

# faces
f 3/2/1 2/2/1 1/2/1
f 4/2/1 2/2/1 3/2/1
f 7/3/1 6/3/1 5/3/1
f 8/3/1 6/3/1 7/3/1
f 13/1/1 10/1/1 9/1/1
f 14/1/1 10/1/1 13/1/1
f 15/1/1 12/1/1 11/1/1
f 16/1/1 12/1/1 15/1/1
f 21/1/1 18/1/1 17/1/1
f 22/1/1 18/1/1 21/1/1
f 23/1/1 20/1/1 19/1/1
f 24/1/1 20/1/1 23/1/1
f 25/1/2 26/1/2 29/1/2
f 29/1/2 26/1/2 30/1/2
f 27/1/2 28/1/2 31/1/2
f 31/1/2 28/1/2 32/1/2
f 33/1/2 34/1/2 37/1/2
f 37/1/2 34/1/2 38/1/2
f 35/1/2 36/1/2 39/1/2
f 39/1/2 36/1/2 40/1/2
f 41/3/2 42/3/2 43/3/2
f 43/3/2 42/3/2 44/3/2
f 45/2/2 46/2/2 47/2/2
f 47/2/2 46/2/2 48/2/2
f 51/2/3 50/2/3 49/2/3
f 52/2/3 50/2/3 51/2/3
f 55/3/3 54/3/3 53/3/3
f 56/3/3 54/3/3 55/3/3
f 59/1/3 58/1/3 57/1/3
f 60/1/3 58/1/3 59/1/3
f 63/1/3 62/1/3 61/1/3
f 64/1/3 62/1/3 63/1/3
f 67/1/3 66/1/3 65/1/3
f 68/1/3 66/1/3 67/1/3
f 71/1/3 70/1/3 69/1/3
f 72/1/3 70/1/3 71/1/3
f 73/1/4 74/1/4 75/1/4
f 75/1/4 74/1/4 76/1/4
f 77/1/4 78/1/4 79/1/4
f 79/1/4 78/1/4 80/1/4
f 81/1/4 82/1/4 83/1/4
f 83/1/4 82/1/4 84/1/4
f 85/1/4 86/1/4 87/1/4
f 87/1/4 86/1/4 88/1/4
f 89/3/4 90/3/4 91/3/4
f 91/3/4 90/3/4 92/3/4
f 93/2/4 94/2/4 95/2/4
f 95/2/4 94/2/4 96/2/4
f 99/2/5 98/2/5 97/2/5
f 100/2/5 98/2/5 99/2/5
f 101/2/5 99/2/5 97/2/5
f 101/3/5 100/3/5 99/3/5
f 102/2/5 98/2/5 100/2/5
f 102/3/5 100/3/5 101/3/5
f 103/2/5 101/2/5 97/2/5
f 103/2/5 102/2/5 101/2/5
f 104/2/5 98/2/5 102/2/5
f 104/2/5 102/2/5 103/2/5
f 105/2/6 106/2/6 107/2/6
f 107/2/6 106/2/6 108/2/6
f 105/2/6 107/2/6 109/2/6
f 108/2/6 106/2/6 110/2/6
f 105/2/6 109/2/6 111/2/6
f 109/2/6 110/2/6 111/2/6
f 110/2/6 106/2/6 112/2/6
f 111/2/6 110/2/6 112/2/6
f 113/3/6 114/3/6 115/3/6
f 115/3/6 114/3/6 116/3/6
f 116/3/6 114/3/6 117/3/6
f 117/3/6 114/3/6 118/3/6
f 113/3/6 115/3/6 119/3/6
f 116/3/6 117/3/6 120/3/6
f 120/3/6 117/3/6 121/3/6
f 118/3/6 114/3/6 122/3/6
f 120/3/6 121/3/6 123/3/6
f 121/3/6 122/3/6 123/3/6
f 113/3/6 119/3/6 123/3/6
f 119/3/6 120/3/6 123/3/6
f 123/3/6 122/3/6 124/3/6
f 124/3/6 122/3/6 125/3/6
f 122/3/6 114/3/6 126/3/6
f 125/3/6 122/3/6 126/3/6
f 113/3/6 123/3/6 127/3/6
f 124/3/6 125/3/6 128/3/6
f 128/3/6 125/3/6 129/3/6
f 126/3/6 114/3/6 130/3/6
f 113/3/6 127/3/6 131/3/6
f 129/3/6 130/3/6 131/3/6
f 128/3/6 129/3/6 131/3/6
f 127/3/6 128/3/6 131/3/6
f 130/3/6 114/3/6 132/3/6
f 131/3/6 130/3/6 132/3/6
f 133/1/6 134/1/6 137/1/6
f 137/1/6 134/1/6 138/1/6
f 135/1/6 136/1/6 139/1/6
f 139/1/6 136/1/6 140/1/6
f 141/1/6 142/1/6 145/1/6
f 145/1/6 142/1/6 146/1/6
f 143/1/6 144/1/6 147/1/6
f 147/1/6 144/1/6 148/1/6
